<svg width="74" height="24" viewBox="0 0 74 24" fill="none" xmlns="http://www.w3.org/2000/svg">
<g clip-path="url(#clip0_59_4)">
<path d="M5.91402 12.7851C6.44178 12.7851 6.9231 12.8311 7.35798 12.923C7.79286 13.015 8.16581 13.1668 8.47543 13.3758C8.78646 13.5862 9.02712 13.8648 9.19741 14.2131C9.3677 14.5614 9.45355 14.9919 9.45355 15.5031C9.45355 16.0562 9.32689 16.5174 9.07356 16.8866C8.82024 17.2557 8.44447 17.5581 7.94767 17.7935C8.63024 17.9885 9.13971 18.3285 9.47607 18.8147C9.81243 19.3009 9.97991 19.8874 9.97991 20.5743C9.97991 21.1273 9.87154 21.6066 9.6534 22.0106C9.43666 22.416 9.14393 22.7462 8.77661 23.0011C8.40928 23.2575 7.98989 23.447 7.51983 23.5695C7.04836 23.6921 6.56563 23.7534 6.06883 23.7534H0.699707V12.7837H5.91402V12.7851ZM5.60439 17.2251C6.03927 17.2251 6.39534 17.1234 6.6754 16.9172C6.95406 16.7124 7.0948 16.3794 7.0948 15.9183C7.0948 15.662 7.04836 15.453 6.95547 15.2886C6.86258 15.1256 6.73873 14.996 6.58252 14.9041C6.4263 14.8121 6.24897 14.748 6.04772 14.7118C5.84646 14.6756 5.63676 14.6575 5.41862 14.6575H3.13727V17.2237H5.60439V17.2251ZM5.74372 21.8796C5.98157 21.8796 6.20956 21.856 6.4263 21.81C6.64303 21.764 6.83444 21.6874 7.00051 21.5801C7.16658 21.4728 7.29746 21.3266 7.39598 21.1427C7.49449 20.9588 7.54375 20.7233 7.54375 20.4363C7.54375 19.8735 7.38331 19.4709 7.06243 19.2299C6.74155 18.9888 6.31793 18.869 5.79017 18.869H3.13587V21.881H5.74372V21.8796Z" fill="#001EFF"/>
<path d="M13.069 12.7852V21.7265H18.4705V23.7549H10.6328V12.7852H13.069Z" fill="#001EFF"/>
<path d="M24.4138 12.7852L28.5585 23.7549H26.0281L25.1893 21.3127H21.0446L20.1762 23.7549H17.7246L21.9158 12.7852H24.4138ZM24.5546 19.5141L23.1571 15.4893H23.1261L21.6821 19.5141H24.5532H24.5546Z" fill="#001EFF"/>
<path d="M31.9422 12.7852L36.5668 20.1438H36.5977V12.7852H38.8791V23.7549H36.4429L31.8338 16.4116H31.8028V23.7549H29.5215V12.7852H31.9422Z" fill="#001EFF"/>
<path d="M44.669 12.7852C45.3826 12.7852 46.0482 12.898 46.6633 13.1237C47.2783 13.3494 47.8117 13.6865 48.262 14.1379C48.7124 14.5893 49.0642 15.1521 49.3176 15.8278C49.5709 16.5035 49.6976 17.2976 49.6976 18.2087C49.6976 19.0084 49.5934 19.7454 49.3865 20.4211C49.1796 21.0968 48.8672 21.6805 48.4478 22.1723C48.0284 22.6641 47.5063 23.0514 46.88 23.3328C46.2537 23.6142 45.5163 23.7549 44.669 23.7549H39.8882V12.7852H44.669ZM44.4973 21.7265C44.8492 21.7265 45.1897 21.6707 45.5219 21.5579C45.8526 21.4451 46.1482 21.2584 46.4071 20.9978C46.6661 20.7359 46.873 20.396 47.0278 19.9767C47.1826 19.5573 47.26 19.0446 47.26 18.44C47.26 17.8869 47.2051 17.3882 47.0967 16.9424C46.9884 16.4965 46.8096 16.1148 46.5619 15.7972C46.3142 15.4795 45.9849 15.2357 45.5768 15.0672C45.1672 14.8986 44.6634 14.8136 44.0639 14.8136H42.3257V21.7279H44.4987L44.4973 21.7265Z" fill="#001EFF"/>
<path d="M50.5658 16.034C50.8135 15.3332 51.171 14.7202 51.6368 14.1978C52.1027 13.6753 52.6741 13.2657 53.3524 12.969C54.0294 12.6723 54.7936 12.5232 55.6422 12.5232C56.4909 12.5232 57.2663 12.6723 57.939 12.969C58.6118 13.2657 59.1803 13.6753 59.6462 14.1978C60.112 14.7202 60.4681 15.3318 60.7172 16.034C60.9649 16.7361 61.0901 17.4968 61.0901 18.316C61.0901 19.1351 60.9663 19.8596 60.7172 20.552C60.4695 21.243 60.112 21.8448 59.6462 22.3575C59.1803 22.8702 58.6118 23.2714 57.939 23.564C57.2663 23.8566 56.5007 24.0015 55.6422 24.0015C54.7837 24.0015 54.0308 23.8552 53.3524 23.564C52.6741 23.2728 52.1027 22.8702 51.6368 22.3575C51.171 21.8462 50.8135 21.243 50.5658 20.552C50.3181 19.861 50.1929 19.1156 50.1929 18.316C50.1929 17.5163 50.3167 16.7361 50.5658 16.034ZM52.7937 19.6604C52.9021 20.0964 53.0752 20.4879 53.313 20.8362C53.5509 21.1845 53.8619 21.4631 54.2447 21.6735C54.6275 21.8838 55.0933 21.9883 55.6408 21.9883C56.1883 21.9883 56.6541 21.8838 57.0383 21.6735C57.4211 21.4631 57.7307 21.1845 57.97 20.8362C58.2078 20.4879 58.381 20.0964 58.4893 19.6604C58.5977 19.2257 58.6526 18.7771 58.6526 18.316C58.6526 17.8548 58.5977 17.3686 58.4893 16.9172C58.381 16.4672 58.2078 16.0646 57.97 15.7107C57.7322 15.3569 57.4211 15.0755 57.0383 14.8665C56.6555 14.6561 56.1897 14.5516 55.6408 14.5516C55.0919 14.5516 54.6261 14.6561 54.2447 14.8665C53.8619 15.0769 53.5509 15.3583 53.313 15.7107C53.0752 16.0646 52.9021 16.4658 52.7937 16.9172C52.6853 17.3686 52.6304 17.8339 52.6304 18.316C52.6304 18.798 52.6853 19.2257 52.7937 19.6604Z" fill="#001EFF"/>
<path d="M62.0985 20.0329C62.2573 19.6874 62.4696 19.393 62.7367 19.1497C63.0037 18.9071 63.3119 18.7191 63.6618 18.5862C64.0117 18.4533 64.3781 18.3872 64.7602 18.3872C65.1423 18.3872 65.5094 18.454 65.8593 18.5862C66.2092 18.7191 66.5174 18.9071 66.7844 19.1497C67.0515 19.393 67.2638 19.6874 67.4227 20.0329C67.5815 20.3783 67.6603 20.7667 67.6603 21.1974C67.6603 21.6281 67.5808 22.009 67.4227 22.3545C67.2638 22.7 67.0515 22.9957 66.7844 23.241C66.5174 23.4863 66.2092 23.6744 65.8593 23.8045C65.5094 23.9347 65.143 24.0001 64.7602 24.0001C64.3774 24.0001 64.0111 23.9347 63.6618 23.8045C63.3119 23.6744 63.0037 23.4863 62.7367 23.241C62.4696 22.9957 62.2573 22.7 62.0985 22.3545C61.9396 22.009 61.8608 21.6233 61.8608 21.1974C61.8608 20.7715 61.9403 20.3783 62.0985 20.0329ZM62.7969 22.0846C62.9079 22.3551 63.0585 22.5882 63.2503 22.7838C63.4413 22.9793 63.6666 23.132 63.9261 23.2424C64.1857 23.3528 64.4637 23.408 64.7609 23.408C65.0581 23.408 65.3286 23.3528 65.5881 23.2424C65.8477 23.132 66.0729 22.9793 66.264 22.7838C66.4551 22.5882 66.6078 22.3551 66.7208 22.0846C66.8337 21.8141 66.8906 21.5184 66.8906 21.1981C66.8906 20.8778 66.8337 20.5821 66.7208 20.3116C66.6078 20.041 66.4551 19.808 66.264 19.6124C66.0729 19.4168 65.8477 19.2642 65.5881 19.1538C65.3286 19.0434 65.0533 18.9882 64.7609 18.9882C64.4685 18.9882 64.1857 19.0434 63.9261 19.1538C63.6666 19.2642 63.4413 19.4168 63.2503 19.6124C63.0592 19.808 62.9079 20.041 62.7969 20.3116C62.686 20.5821 62.6305 20.8778 62.6305 21.1981C62.6305 21.5184 62.686 21.8141 62.7969 22.0846ZM66.0709 22.1637C65.988 22.3115 65.8846 22.4369 65.7614 22.5391C65.6381 22.642 65.4998 22.7197 65.3457 22.7722C65.1923 22.8247 65.0321 22.8512 64.8664 22.8512C64.6198 22.8512 64.3966 22.809 64.198 22.7231C63.9994 22.6379 63.8289 22.5201 63.6885 22.3701C63.5475 22.2195 63.4379 22.0431 63.3598 21.84C63.2818 21.6369 63.2427 21.4182 63.2427 21.1824C63.2427 20.9466 63.279 20.719 63.3523 20.5139C63.4249 20.3088 63.531 20.131 63.6694 19.9804C63.8077 19.8298 63.9761 19.7126 64.1754 19.6274C64.374 19.5422 64.5993 19.4993 64.8513 19.4993C65.0273 19.4993 65.1923 19.5245 65.3457 19.5743C65.4991 19.6247 65.6367 19.6983 65.7573 19.7957C65.8778 19.8932 65.9784 20.0151 66.0592 20.1603C66.1394 20.3054 66.1928 20.4737 66.2181 20.6639H65.6292C65.5888 20.4887 65.4984 20.3511 65.3573 20.2502C65.2163 20.1501 65.0478 20.0996 64.8513 20.0996C64.5644 20.0996 64.3452 20.1984 64.1946 20.3967C64.0432 20.5943 63.9679 20.8512 63.9679 21.1667C63.9679 21.3119 63.9891 21.4509 64.0323 21.5838C64.0747 21.7167 64.1357 21.8318 64.2138 21.9293C64.2918 22.0267 64.3863 22.1051 64.4973 22.1623C64.6082 22.2202 64.7315 22.2488 64.867 22.2488C65.0786 22.2488 65.2519 22.1964 65.3882 22.0908C65.5244 21.9858 65.6046 21.8427 65.6299 21.6621H66.2414C66.2113 21.8475 66.1544 22.0144 66.0716 22.1616L66.0709 22.1637Z" fill="#001EFF"/>
<path d="M2.56147 8.52762C2.69658 8.78396 2.87391 8.99154 3.09627 9.15036C3.31864 9.30918 3.58041 9.4262 3.88018 9.50422C4.17995 9.58085 4.49098 9.61985 4.81186 9.61985C5.02859 9.61985 5.26222 9.60174 5.50991 9.56552C5.75761 9.5293 5.99123 9.46103 6.20797 9.35794C6.4247 9.25624 6.60626 9.11414 6.75121 8.93581C6.89617 8.75609 6.96795 8.52901 6.96795 8.25177C6.96795 7.95503 6.87225 7.71401 6.68085 7.53011C6.48944 7.34621 6.23893 7.19157 5.9279 7.06898C5.61687 6.94638 5.26503 6.8391 4.87237 6.74576C4.47972 6.65381 4.08143 6.55072 3.67752 6.43787C3.26375 6.33617 2.85983 6.20939 2.46718 6.06172C2.07452 5.91404 1.72268 5.72179 1.41165 5.48495C1.10062 5.24951 0.850108 4.95555 0.658706 4.60169C0.467303 4.24782 0.371602 3.82012 0.371602 3.31858C0.371602 2.75575 0.492636 2.26675 0.736111 1.85158C0.979586 1.43642 1.29765 1.09092 1.69031 0.815071C2.08297 0.539225 2.5291 0.334431 3.0245 0.200687C3.5213 0.0683366 4.0181 0.00146484 4.5149 0.00146484C5.09474 0.00146484 5.65065 0.0655503 6.18404 0.193721C6.71744 0.321892 7.19031 0.529473 7.60408 0.816465C8.01785 1.10346 8.34577 1.46986 8.58924 1.91567C8.83272 2.36148 8.95375 2.90203 8.95375 3.53592H6.595C6.57389 3.20852 6.50492 2.93686 6.3853 2.72231C6.26567 2.50776 6.10805 2.3378 5.91242 2.2152C5.71539 2.0926 5.49021 2.00483 5.23688 1.95328C4.98356 1.90174 4.7063 1.87666 4.40653 1.87666C4.2095 1.87666 4.01388 1.89756 3.81685 1.93796C3.61981 1.97836 3.44108 2.05081 3.28204 2.15251C3.1216 2.2556 2.98931 2.38238 2.88657 2.53702C2.78243 2.69027 2.73176 2.88531 2.73176 3.12075C2.73176 3.3353 2.77258 3.50945 2.85561 3.64319C2.93865 3.77693 3.1019 3.89953 3.34397 4.01238C3.58744 4.12522 3.92381 4.23807 4.35305 4.35092C4.7823 4.46376 5.34384 4.60726 6.03768 4.7814C6.24456 4.82181 6.53166 4.89704 6.89899 5.00431C7.26631 5.11158 7.63082 5.28294 7.99252 5.51839C8.35421 5.75383 8.66805 6.06868 8.93123 6.46295C9.19582 6.85721 9.3267 7.36154 9.3267 7.97592C9.3267 8.47746 9.22819 8.94417 9.03115 9.37466C8.83412 9.80514 8.5428 10.1757 8.15436 10.4892C7.76593 10.8013 7.28461 11.0451 6.7104 11.2192C6.13619 11.3933 5.47191 11.4811 4.71616 11.4811C4.10536 11.4811 3.51285 11.4073 2.93865 11.2582C2.36444 11.1091 1.85779 10.8765 1.41728 10.5588C0.976772 10.2412 0.627744 9.83719 0.370195 9.3454C0.114053 8.84944 -0.00979538 8.2657 5.62194e-05 7.59002H2.35881C2.35881 7.95921 2.42636 8.27127 2.56006 8.52762H2.56147Z" fill="#001EFF"/>
<path d="M8.90869 2.28901V0.261963H17.9876V2.29041H14.6662V11.2317H12.2301V2.28901H8.90869Z" fill="#001EFF"/>
<path d="M26.1829 10.393C25.3441 11.1147 24.1859 11.4755 22.7067 11.4755C21.2276 11.4755 20.0454 11.1175 19.2221 10.4C18.4002 9.68252 17.9878 8.57635 17.9878 7.08149V0.261963H20.424V7.08288C20.424 7.37963 20.4493 7.67219 20.5014 7.95918C20.5534 8.24617 20.6618 8.49973 20.8279 8.71985C20.9925 8.93997 21.2233 9.11969 21.5189 9.25761C21.8144 9.39553 22.2099 9.46519 22.7067 9.46519C23.5765 9.46519 24.176 9.27293 24.5067 8.88842C24.8375 8.50391 25.0035 7.90206 25.0035 7.08288V0.261963H27.4397V7.08288C27.4397 8.56799 27.0203 9.67138 26.1829 10.3944V10.393Z" fill="#001EFF"/>
<path d="M33.3223 0.261963C34.0359 0.261963 34.7016 0.374809 35.3166 0.600501C35.9316 0.826193 36.465 1.16334 36.9154 1.61472C37.3657 2.06611 37.7176 2.62894 37.9709 3.30463C38.2242 3.98031 38.3509 4.77441 38.3509 5.68554C38.3509 6.48382 38.2467 7.2222 38.0398 7.89788C37.833 8.57357 37.5205 9.1573 37.1011 9.64909C36.6817 10.1409 36.1596 10.5282 35.5333 10.8096C34.907 11.091 34.1696 11.2317 33.3223 11.2317H28.5415V0.261963H33.3223ZM33.152 9.20328C33.5039 9.20328 33.8445 9.14755 34.1766 9.0347C34.5073 8.92186 34.8029 8.73517 35.0619 8.47465C35.3208 8.21274 35.5277 7.87281 35.6825 7.45346C35.8373 7.03412 35.9147 6.52144 35.9147 5.91681C35.9147 5.36372 35.8598 4.86497 35.7515 4.41916C35.6431 3.97335 35.4644 3.59162 35.2167 3.27398C34.969 2.95634 34.6396 2.71253 34.2315 2.54396C33.822 2.37539 33.3181 2.29041 32.7186 2.29041H30.9805V9.20467H33.1535L33.152 9.20328Z" fill="#001EFF"/>
<path d="M41.4865 0.261963V11.2317H39.0503V0.261963H41.4865Z" fill="#001EFF"/>
<path d="M42.5268 3.51077C42.7745 2.81001 43.1319 2.19702 43.5978 1.67458C44.0636 1.15214 44.635 0.742555 45.3134 0.445812C45.9903 0.149068 46.7545 0 47.6031 0C48.4518 0 49.2273 0.149068 49.9 0.445812C50.5727 0.742555 51.1413 1.15214 51.6071 1.67458C52.073 2.19702 52.429 2.80861 52.6781 3.51077C52.9258 4.21292 53.0511 4.97359 53.0511 5.79277C53.0511 6.61195 52.9272 7.33639 52.6781 8.02879C52.4304 8.7198 52.073 9.32165 51.6071 9.83433C51.1413 10.347 50.5727 10.7482 49.9 11.0408C49.2273 11.3334 48.4616 11.4783 47.6031 11.4783C46.7447 11.4783 45.9917 11.332 45.3134 11.0408C44.635 10.7482 44.0636 10.347 43.5978 9.83433C43.1319 9.32165 42.7745 8.7198 42.5268 8.02879C42.2791 7.33778 42.1538 6.59244 42.1538 5.79277C42.1538 4.99309 42.2777 4.21292 42.5268 3.51077ZM44.7532 7.13578C44.8616 7.57183 45.0347 7.96331 45.2725 8.3116C45.5104 8.65989 45.8214 8.93853 46.2042 9.14889C46.587 9.35926 47.0529 9.46375 47.6003 9.46375C48.1478 9.46375 48.615 9.35926 48.9979 9.14889C49.3807 8.93853 49.6903 8.65989 49.9295 8.3116C50.1674 7.96331 50.3405 7.57183 50.4489 7.13578C50.5572 6.70111 50.6121 6.25251 50.6121 5.79137C50.6121 5.33024 50.5572 4.84402 50.4489 4.39264C50.3405 3.94265 50.1674 3.54002 49.9295 3.18616C49.6917 2.8323 49.3807 2.55088 48.9979 2.34191C48.615 2.13154 48.1492 2.02705 47.6003 2.02705C47.0515 2.02705 46.5856 2.13154 46.2042 2.34191C45.8214 2.55227 45.5104 2.83369 45.2725 3.18616C45.0347 3.54002 44.8616 3.94126 44.7532 4.39264C44.6449 4.84402 44.59 5.30934 44.59 5.79137C44.59 6.27341 44.6449 6.70111 44.7532 7.13578Z" fill="#001EFF"/>
</g>
<defs>
<clipPath id="clip0_59_4">
<rect width="73.8462" height="24" fill="white"/>
</clipPath>
</defs>
</svg>
